<svg width="18" height="23" viewBox="0 0 18 23" fill="none" xmlns="http://www.w3.org/2000/svg">
<g filter="url(#filter0_d_555_767)">
<path fill-rule="evenodd" clip-rule="evenodd" d="M8.99992 1.3335C6.41992 1.3335 4.33325 3.42016 4.33325 6.00016C4.33325 9.50016 8.99992 14.6668 8.99992 14.6668C8.99992 14.6668 13.6666 9.50016 13.6666 6.00016C13.6666 3.42016 11.5799 1.3335 8.99992 1.3335ZM5.66659 6.00016C5.66659 4.16016 7.15992 2.66683 8.99992 2.66683C10.8399 2.66683 12.3333 4.16016 12.3333 6.00016C12.3333 7.92016 10.4133 10.7935 8.99992 12.5868C7.61325 10.8068 5.66659 7.90016 5.66659 6.00016ZM7.33325 6.00016C7.33325 5.07969 8.07944 4.3335 8.99992 4.3335C9.59536 4.3335 10.1456 4.65116 10.4433 5.16683C10.741 5.6825 10.741 6.31783 10.4433 6.8335C10.1456 7.34916 9.59536 7.66683 8.99992 7.66683C8.07944 7.66683 7.33325 6.92064 7.33325 6.00016Z" fill="#C40B0B"/>
</g>
<defs>
<filter id="filter0_d_555_767" x="-3" y="0" width="24" height="24" filterUnits="userSpaceOnUse" color-interpolation-filters="sRGB">
<feFlood flood-opacity="0" result="BackgroundImageFix"/>
<feColorMatrix in="SourceAlpha" type="matrix" values="0 0 0 0 0 0 0 0 0 0 0 0 0 0 0 0 0 0 127 0" result="hardAlpha"/>
<feOffset dy="4"/>
<feGaussianBlur stdDeviation="2"/>
<feComposite in2="hardAlpha" operator="out"/>
<feColorMatrix type="matrix" values="0 0 0 0 0 0 0 0 0 0 0 0 0 0 0 0 0 0 0.25 0"/>
<feBlend mode="normal" in2="BackgroundImageFix" result="effect1_dropShadow_555_767"/>
<feBlend mode="normal" in="SourceGraphic" in2="effect1_dropShadow_555_767" result="shape"/>
</filter>
</defs>
</svg>
